<?xml version="1.0" encoding="UTF-8" standalone="no"?>
<!DOCTYPE svg PUBLIC "-//W3C//DTD SVG 1.1//EN"
 "http://www.w3.org/Graphics/SVG/1.1/DTD/svg11.dtd">
<!-- Generated by graphviz version 5.0.0 (20220707.1540)
 -->
<!-- Title: dependencies Pages: 1 -->
<svg width="384pt" height="247pt"
 viewBox="0.00 0.00 384.00 246.80" xmlns="http://www.w3.org/2000/svg" xmlns:xlink="http://www.w3.org/1999/xlink">
<g id="graph0" class="graph" transform="scale(1 1) rotate(0) translate(4 242.8)">
<title>dependencies</title>
<polygon fill="white" stroke="transparent" points="-4,4 -4,-242.8 380,-242.8 380,4 -4,4"/>
<text text-anchor="middle" x="188" y="-8.2" font-family="sans-serif" font-size="14.00">dependencies</text>
<g id="clust1" class="cluster">
<title>cluster_EnvironmentModule</title>
<polygon fill="none" stroke="black" stroke-dasharray="1,5" points="8,-32.8 8,-230.8 368,-230.8 368,-32.8 8,-32.8"/>
</g>
<g id="clust4" class="cluster">
<title>cluster_EnvironmentModule_exports</title>
<polygon fill="none" stroke="black" points="16,-170.8 16,-222.8 360,-222.8 360,-170.8 16,-170.8"/>
</g>
<g id="clust6" class="cluster">
<title>cluster_EnvironmentModule_providers</title>
<polygon fill="none" stroke="black" points="73,-40.8 73,-92.8 303,-92.8 303,-40.8 73,-40.8"/>
</g>
<!-- ApplicationEnvironment  -->
<g id="node1" class="node">
<title>ApplicationEnvironment </title>
<polygon fill="#fb8072" stroke="black" points="352.19,-214.8 193.81,-214.8 193.81,-178.8 352.19,-178.8 352.19,-214.8"/>
<text text-anchor="middle" x="273" y="-192.6" font-family="Times,serif" font-size="14.00">ApplicationEnvironment </text>
</g>
<!-- MongooseEnvironment  -->
<g id="node2" class="node">
<title>MongooseEnvironment </title>
<polygon fill="#fb8072" stroke="black" points="175.71,-214.8 24.29,-214.8 24.29,-178.8 175.71,-178.8 175.71,-214.8"/>
<text text-anchor="middle" x="100" y="-192.6" font-family="Times,serif" font-size="14.00">MongooseEnvironment </text>
</g>
<!-- EnvironmentModule -->
<g id="node3" class="node">
<title>EnvironmentModule</title>
<polygon fill="#8dd3c7" stroke="black" points="254.15,-149.8 251.15,-153.8 230.15,-153.8 227.15,-149.8 121.85,-149.8 121.85,-113.8 254.15,-113.8 254.15,-149.8"/>
<text text-anchor="middle" x="188" y="-127.6" font-family="Times,serif" font-size="14.00">EnvironmentModule</text>
</g>
<!-- EnvironmentModule&#45;&gt;ApplicationEnvironment  -->
<g id="edge1" class="edge">
<title>EnvironmentModule&#45;&gt;ApplicationEnvironment </title>
<path fill="none" stroke="black" stroke-dasharray="5,2" d="M223.99,-149.91C223.99,-149.91 223.99,-168.79 223.99,-168.79"/>
<polygon fill="black" stroke="black" points="220.49,-168.79 223.99,-178.79 227.49,-168.79 220.49,-168.79"/>
</g>
<!-- EnvironmentModule&#45;&gt;MongooseEnvironment  -->
<g id="edge2" class="edge">
<title>EnvironmentModule&#45;&gt;MongooseEnvironment </title>
<path fill="none" stroke="black" stroke-dasharray="5,2" d="M148.76,-149.91C148.76,-149.91 148.76,-168.79 148.76,-168.79"/>
<polygon fill="black" stroke="black" points="145.26,-168.79 148.76,-178.79 152.26,-168.79 145.26,-168.79"/>
</g>
<!-- ApplicationEnvironment -->
<g id="node4" class="node">
<title>ApplicationEnvironment</title>
<ellipse fill="#fdb462" stroke="black" cx="188" cy="-66.8" rx="107.1" ry="18"/>
<text text-anchor="middle" x="188" y="-62.6" font-family="Times,serif" font-size="14.00">ApplicationEnvironment</text>
</g>
<!-- ApplicationEnvironment&#45;&gt;EnvironmentModule -->
<g id="edge3" class="edge">
<title>ApplicationEnvironment&#45;&gt;EnvironmentModule</title>
<path fill="none" stroke="black" d="M188,-84.91C188,-84.91 188,-103.79 188,-103.79"/>
<polygon fill="black" stroke="black" points="184.5,-103.79 188,-113.79 191.5,-103.79 184.5,-103.79"/>
</g>
</g>
</svg>
