<?xml version="1.0" encoding="UTF-8" standalone="no"?>
<!DOCTYPE svg PUBLIC "-//W3C//DTD SVG 1.1//EN"
 "http://www.w3.org/Graphics/SVG/1.1/DTD/svg11.dtd">
<!-- Generated by graphviz version 5.0.0 (20220707.1540)
 -->
<!-- Title: dependencies Pages: 1 -->
<svg width="604pt" height="174pt"
 viewBox="0.00 0.00 604.00 173.80" xmlns="http://www.w3.org/2000/svg" xmlns:xlink="http://www.w3.org/1999/xlink">
<g id="graph0" class="graph" transform="scale(1 1) rotate(0) translate(4 169.8)">
<title>dependencies</title>
<polygon fill="white" stroke="transparent" points="-4,4 -4,-169.8 600,-169.8 600,4 -4,4"/>
<text text-anchor="middle" x="298" y="-8.2" font-family="sans-serif" font-size="14.00">dependencies</text>
<g id="clust1" class="cluster">
<title>cluster_AppModule</title>
<polygon fill="none" stroke="black" stroke-dasharray="1,5" points="8,-32.8 8,-157.8 588,-157.8 588,-32.8 8,-32.8"/>
</g>
<g id="clust3" class="cluster">
<title>cluster_AppModule_imports</title>
<polygon fill="none" stroke="black" points="190,-40.8 190,-92.8 580,-92.8 580,-40.8 190,-40.8"/>
</g>
<g id="clust6" class="cluster">
<title>cluster_AppModule_providers</title>
<polygon fill="none" stroke="black" points="16,-40.8 16,-92.8 182,-92.8 182,-40.8 16,-40.8"/>
</g>
<!-- CacheModule -->
<g id="node1" class="node">
<title>CacheModule</title>
<polygon fill="#8dd3c7" stroke="black" points="572.03,-84.8 569.03,-88.8 548.03,-88.8 545.03,-84.8 477.97,-84.8 477.97,-48.8 572.03,-48.8 572.03,-84.8"/>
<text text-anchor="middle" x="525" y="-62.6" font-family="Times,serif" font-size="14.00">CacheModule</text>
</g>
<!-- AppModule -->
<g id="node4" class="node">
<title>AppModule</title>
<polygon fill="#8dd3c7" stroke="black" points="375.66,-149.8 372.66,-153.8 351.66,-153.8 348.66,-149.8 292.34,-149.8 292.34,-113.8 375.66,-113.8 375.66,-149.8"/>
<text text-anchor="middle" x="334" y="-127.6" font-family="Times,serif" font-size="14.00">AppModule</text>
</g>
<!-- CacheModule&#45;&gt;AppModule -->
<g id="edge1" class="edge">
<title>CacheModule&#45;&gt;AppModule</title>
<path fill="none" stroke="black" d="M525,-84.91C525,-104.14 525,-131.8 525,-131.8 525,-131.8 385.92,-131.8 385.92,-131.8"/>
<polygon fill="black" stroke="black" points="385.92,-128.3 375.92,-131.8 385.92,-135.3 385.92,-128.3"/>
</g>
<!-- DatabaseModule -->
<g id="node2" class="node">
<title>DatabaseModule</title>
<polygon fill="#8dd3c7" stroke="black" points="459.36,-84.8 456.36,-88.8 435.36,-88.8 432.36,-84.8 348.64,-84.8 348.64,-48.8 459.36,-48.8 459.36,-84.8"/>
<text text-anchor="middle" x="404" y="-62.6" font-family="Times,serif" font-size="14.00">DatabaseModule</text>
</g>
<!-- DatabaseModule&#45;&gt;AppModule -->
<g id="edge2" class="edge">
<title>DatabaseModule&#45;&gt;AppModule</title>
<path fill="none" stroke="black" d="M362.2,-84.91C362.2,-84.91 362.2,-103.79 362.2,-103.79"/>
<polygon fill="black" stroke="black" points="358.7,-103.79 362.2,-113.79 365.7,-103.79 358.7,-103.79"/>
</g>
<!-- EnvironmentModule -->
<g id="node3" class="node">
<title>EnvironmentModule</title>
<polygon fill="#8dd3c7" stroke="black" points="330.15,-84.8 327.15,-88.8 306.15,-88.8 303.15,-84.8 197.85,-84.8 197.85,-48.8 330.15,-48.8 330.15,-84.8"/>
<text text-anchor="middle" x="264" y="-62.6" font-family="Times,serif" font-size="14.00">EnvironmentModule</text>
</g>
<!-- EnvironmentModule&#45;&gt;AppModule -->
<g id="edge3" class="edge">
<title>EnvironmentModule&#45;&gt;AppModule</title>
<path fill="none" stroke="black" d="M311.25,-84.91C311.25,-84.91 311.25,-103.79 311.25,-103.79"/>
<polygon fill="black" stroke="black" points="307.75,-103.79 311.25,-113.79 314.75,-103.79 307.75,-103.79"/>
</g>
<!-- SwaggerOptions -->
<g id="node5" class="node">
<title>SwaggerOptions</title>
<ellipse fill="#fdb462" stroke="black" cx="99" cy="-66.8" rx="75.32" ry="18"/>
<text text-anchor="middle" x="99" y="-62.6" font-family="Times,serif" font-size="14.00">SwaggerOptions</text>
</g>
<!-- SwaggerOptions&#45;&gt;AppModule -->
<g id="edge4" class="edge">
<title>SwaggerOptions&#45;&gt;AppModule</title>
<path fill="none" stroke="black" d="M99,-84.91C99,-104.14 99,-131.8 99,-131.8 99,-131.8 282.26,-131.8 282.26,-131.8"/>
<polygon fill="black" stroke="black" points="282.26,-135.3 292.26,-131.8 282.26,-128.3 282.26,-135.3"/>
</g>
</g>
</svg>
