<?xml version="1.0" encoding="UTF-8" standalone="no"?>
<!DOCTYPE svg PUBLIC "-//W3C//DTD SVG 1.1//EN"
 "http://www.w3.org/Graphics/SVG/1.1/DTD/svg11.dtd">
<!-- Generated by graphviz version 5.0.0 (20220707.1540)
 -->
<!-- Title: dependencies Pages: 1 -->
<svg width="1210pt" height="185pt"
 viewBox="0.00 0.00 1210.00 184.80" xmlns="http://www.w3.org/2000/svg" xmlns:xlink="http://www.w3.org/1999/xlink">
<g id="graph0" class="graph" transform="scale(1 1) rotate(0) translate(4 180.8)">
<title>dependencies</title>
<polygon fill="white" stroke="transparent" points="-4,4 -4,-180.8 1206,-180.8 1206,4 -4,4"/>
<text text-anchor="middle" x="601" y="-8.2" font-family="sans-serif" font-size="14.00">dependencies</text>
<g id="clust1" class="cluster">
<title>cluster_AppModule</title>
<polygon fill="none" stroke="black" stroke-dasharray="1,5" points="8,-32.8 8,-160.8 588,-160.8 588,-32.8 8,-32.8"/>
</g>
<g id="clust3" class="cluster">
<title>cluster_AppModule_imports</title>
<polygon fill="none" stroke="black" points="190,-40.8 190,-92.8 580,-92.8 580,-40.8 190,-40.8"/>
</g>
<g id="clust6" class="cluster">
<title>cluster_AppModule_providers</title>
<polygon fill="none" stroke="black" points="16,-40.8 16,-92.8 182,-92.8 182,-40.8 16,-40.8"/>
</g>
<g id="clust19" class="cluster">
<title>cluster_EnvironmentModule</title>
<polygon fill="none" stroke="black" stroke-dasharray="1,5" points="596,-100.8 596,-168.8 1194,-168.8 1194,-100.8 596,-100.8"/>
</g>
<g id="clust22" class="cluster">
<title>cluster_EnvironmentModule_exports</title>
<polygon fill="none" stroke="black" points="842,-108.8 842,-160.8 1186,-160.8 1186,-108.8 842,-108.8"/>
</g>
<g id="clust24" class="cluster">
<title>cluster_EnvironmentModule_providers</title>
<polygon fill="none" stroke="black" points="604,-108.8 604,-160.8 834,-160.8 834,-108.8 604,-108.8"/>
</g>
<!-- CacheModule -->
<g id="node1" class="node">
<title>CacheModule</title>
<polygon fill="#8dd3c7" stroke="black" points="421.03,-84.8 418.03,-88.8 397.03,-88.8 394.03,-84.8 326.97,-84.8 326.97,-48.8 421.03,-48.8 421.03,-84.8"/>
<text text-anchor="middle" x="374" y="-62.6" font-family="Times,serif" font-size="14.00">CacheModule</text>
</g>
<!-- AppModule -->
<g id="node4" class="node">
<title>AppModule</title>
<polygon fill="#8dd3c7" stroke="black" points="354.66,-152.8 351.66,-156.8 330.66,-156.8 327.66,-152.8 271.34,-152.8 271.34,-116.8 354.66,-116.8 354.66,-152.8"/>
<text text-anchor="middle" x="313" y="-130.6" font-family="Times,serif" font-size="14.00">AppModule</text>
</g>
<!-- CacheModule&#45;&gt;AppModule -->
<g id="edge1" class="edge">
<title>CacheModule&#45;&gt;AppModule</title>
<path fill="none" stroke="black" d="M340.78,-85.02C340.78,-85.02 340.78,-106.53 340.78,-106.53"/>
<polygon fill="black" stroke="black" points="337.28,-106.53 340.78,-116.53 344.28,-106.53 337.28,-106.53"/>
</g>
<!-- DatabaseModule -->
<g id="node2" class="node">
<title>DatabaseModule</title>
<polygon fill="#8dd3c7" stroke="black" points="308.36,-84.8 305.36,-88.8 284.36,-88.8 281.36,-84.8 197.64,-84.8 197.64,-48.8 308.36,-48.8 308.36,-84.8"/>
<text text-anchor="middle" x="253" y="-62.6" font-family="Times,serif" font-size="14.00">DatabaseModule</text>
</g>
<!-- DatabaseModule&#45;&gt;AppModule -->
<g id="edge2" class="edge">
<title>DatabaseModule&#45;&gt;AppModule</title>
<path fill="none" stroke="black" d="M289.8,-85.02C289.8,-85.02 289.8,-106.53 289.8,-106.53"/>
<polygon fill="black" stroke="black" points="286.3,-106.53 289.8,-116.53 293.3,-106.53 286.3,-106.53"/>
</g>
<!-- EnvironmentModule -->
<g id="node3" class="node">
<title>EnvironmentModule</title>
<polygon fill="#8dd3c7" stroke="black" points="572.15,-84.8 569.15,-88.8 548.15,-88.8 545.15,-84.8 439.85,-84.8 439.85,-48.8 572.15,-48.8 572.15,-84.8"/>
<text text-anchor="middle" x="506" y="-62.6" font-family="Times,serif" font-size="14.00">EnvironmentModule</text>
</g>
<!-- EnvironmentModule&#45;&gt;AppModule -->
<g id="edge3" class="edge">
<title>EnvironmentModule&#45;&gt;AppModule</title>
<path fill="none" stroke="black" d="M483.89,-85.09C483.89,-107.01 483.89,-140.8 483.89,-140.8 483.89,-140.8 364.8,-140.8 364.8,-140.8"/>
<polygon fill="black" stroke="black" points="364.8,-137.3 354.8,-140.8 364.8,-144.3 364.8,-137.3"/>
</g>
<!-- ApplicationEnvironment  -->
<g id="node6" class="node">
<title>ApplicationEnvironment </title>
<polygon fill="#fb8072" stroke="black" points="1178.19,-152.8 1019.81,-152.8 1019.81,-116.8 1178.19,-116.8 1178.19,-152.8"/>
<text text-anchor="middle" x="1099" y="-130.6" font-family="Times,serif" font-size="14.00">ApplicationEnvironment </text>
</g>
<!-- EnvironmentModule&#45;&gt;ApplicationEnvironment  -->
<g id="edge5" class="edge">
<title>EnvironmentModule&#45;&gt;ApplicationEnvironment </title>
<path fill="none" stroke="black" stroke-dasharray="5,2" d="M572.3,-60.8C727.04,-60.8 1099,-60.8 1099,-60.8 1099,-60.8 1099,-106.51 1099,-106.51"/>
<polygon fill="black" stroke="black" points="1095.5,-106.51 1099,-116.51 1102.5,-106.51 1095.5,-106.51"/>
</g>
<!-- MongooseEnvironment  -->
<g id="node7" class="node">
<title>MongooseEnvironment </title>
<polygon fill="#fb8072" stroke="black" points="1001.71,-152.8 850.29,-152.8 850.29,-116.8 1001.71,-116.8 1001.71,-152.8"/>
<text text-anchor="middle" x="926" y="-130.6" font-family="Times,serif" font-size="14.00">MongooseEnvironment </text>
</g>
<!-- EnvironmentModule&#45;&gt;MongooseEnvironment  -->
<g id="edge6" class="edge">
<title>EnvironmentModule&#45;&gt;MongooseEnvironment </title>
<path fill="none" stroke="black" stroke-dasharray="5,2" d="M572.55,-72.8C690.98,-72.8 926,-72.8 926,-72.8 926,-72.8 926,-106.53 926,-106.53"/>
<polygon fill="black" stroke="black" points="922.5,-106.53 926,-116.53 929.5,-106.53 922.5,-106.53"/>
</g>
<!-- SwaggerOptions -->
<g id="node5" class="node">
<title>SwaggerOptions</title>
<ellipse fill="#fdb462" stroke="black" cx="99" cy="-66.8" rx="75.32" ry="18"/>
<text text-anchor="middle" x="99" y="-62.6" font-family="Times,serif" font-size="14.00">SwaggerOptions</text>
</g>
<!-- SwaggerOptions&#45;&gt;AppModule -->
<g id="edge4" class="edge">
<title>SwaggerOptions&#45;&gt;AppModule</title>
<path fill="none" stroke="black" d="M99,-85.02C99,-105.17 99,-134.8 99,-134.8 99,-134.8 261.23,-134.8 261.23,-134.8"/>
<polygon fill="black" stroke="black" points="261.23,-138.3 271.23,-134.8 261.23,-131.3 261.23,-138.3"/>
</g>
<!-- ApplicationEnvironment -->
<g id="node8" class="node">
<title>ApplicationEnvironment</title>
<ellipse fill="#fdb462" stroke="black" cx="719" cy="-134.8" rx="107.1" ry="18"/>
<text text-anchor="middle" x="719" y="-130.6" font-family="Times,serif" font-size="14.00">ApplicationEnvironment</text>
</g>
<!-- ApplicationEnvironment&#45;&gt;EnvironmentModule -->
<g id="edge7" class="edge">
<title>ApplicationEnvironment&#45;&gt;EnvironmentModule</title>
<path fill="none" stroke="black" d="M617.96,-128.8C572.18,-128.8 528.11,-128.8 528.11,-128.8 528.11,-128.8 528.11,-95.07 528.11,-95.07"/>
<polygon fill="black" stroke="black" points="531.61,-95.07 528.11,-85.07 524.61,-95.07 531.61,-95.07"/>
</g>
</g>
</svg>
